<mxfile host="app.diagrams.net" modified="2023-07-21T18:31:38.261Z" agent="Mozilla/5.0 (Macintosh; Intel Mac OS X 10_15_7) AppleWebKit/605.1.15 (KHTML, like Gecko) Version/16.5.2 Safari/605.1.15" etag="RjRdG18bY_TqcAgt2OCY" version="21.6.3" type="github">
  <diagram name="Page-1" id="2YBvvXClWsGukQMizWep">
    <mxGraphModel dx="2522" dy="1414" grid="1" gridSize="10" guides="1" tooltips="1" connect="1" arrows="1" fold="1" page="1" pageScale="1" pageWidth="850" pageHeight="1100" math="0" shadow="0">
      <root>
        <mxCell id="0" />
        <mxCell id="1" parent="0" />
        <mxCell id="mcnoIIO7HVUvnrH4zgqC-11" style="edgeStyle=orthogonalEdgeStyle;rounded=0;orthogonalLoop=1;jettySize=auto;html=1;exitX=0.5;exitY=1;exitDx=0;exitDy=0;dashed=1;endArrow=none;endFill=0;" parent="1" source="mcnoIIO7HVUvnrH4zgqC-26" edge="1">
          <mxGeometry relative="1" as="geometry">
            <mxPoint x="90" y="473" as="targetPoint" />
          </mxGeometry>
        </mxCell>
        <mxCell id="mcnoIIO7HVUvnrH4zgqC-5" value="desktop web" style="rounded=0;whiteSpace=wrap;html=1;" parent="1" vertex="1">
          <mxGeometry x="40" y="73" width="100" height="40" as="geometry" />
        </mxCell>
        <mxCell id="mcnoIIO7HVUvnrH4zgqC-12" value="mobile photo web" style="rounded=0;whiteSpace=wrap;html=1;" parent="1" vertex="1">
          <mxGeometry x="360" y="73" width="100" height="40" as="geometry" />
        </mxCell>
        <mxCell id="mcnoIIO7HVUvnrH4zgqC-13" style="edgeStyle=orthogonalEdgeStyle;rounded=0;orthogonalLoop=1;jettySize=auto;html=1;exitX=0.5;exitY=1;exitDx=0;exitDy=0;dashed=1;endArrow=none;endFill=0;" parent="1" source="mcnoIIO7HVUvnrH4zgqC-46" edge="1">
          <mxGeometry relative="1" as="geometry">
            <mxPoint x="410" y="473" as="targetPoint" />
          </mxGeometry>
        </mxCell>
        <mxCell id="mcnoIIO7HVUvnrH4zgqC-27" value="" style="edgeStyle=orthogonalEdgeStyle;rounded=0;orthogonalLoop=1;jettySize=auto;html=1;exitX=0.5;exitY=1;exitDx=0;exitDy=0;dashed=1;endArrow=none;endFill=0;" parent="1" source="mcnoIIO7HVUvnrH4zgqC-5" target="mcnoIIO7HVUvnrH4zgqC-26" edge="1">
          <mxGeometry relative="1" as="geometry">
            <mxPoint x="90" y="443" as="targetPoint" />
            <mxPoint x="90" y="113" as="sourcePoint" />
          </mxGeometry>
        </mxCell>
        <mxCell id="mcnoIIO7HVUvnrH4zgqC-26" value="click on link" style="rounded=1;whiteSpace=wrap;html=1;" parent="1" vertex="1">
          <mxGeometry x="40" y="133" width="100" height="40" as="geometry" />
        </mxCell>
        <mxCell id="mcnoIIO7HVUvnrH4zgqC-28" value="QR code" style="rounded=1;whiteSpace=wrap;html=1;glass=0;" parent="1" vertex="1">
          <mxGeometry x="40" y="193" width="100" height="40" as="geometry" />
        </mxCell>
        <mxCell id="mcnoIIO7HVUvnrH4zgqC-29" value="" style="endArrow=classic;html=1;rounded=0;" parent="1" edge="1">
          <mxGeometry width="50" height="50" relative="1" as="geometry">
            <mxPoint x="410" y="212.76" as="sourcePoint" />
            <mxPoint x="140" y="212.76" as="targetPoint" />
          </mxGeometry>
        </mxCell>
        <mxCell id="mcnoIIO7HVUvnrH4zgqC-30" value="return url" style="edgeLabel;html=1;align=center;verticalAlign=middle;resizable=0;points=[];" parent="mcnoIIO7HVUvnrH4zgqC-29" vertex="1" connectable="0">
          <mxGeometry x="0.1213" relative="1" as="geometry">
            <mxPoint as="offset" />
          </mxGeometry>
        </mxCell>
        <mxCell id="mcnoIIO7HVUvnrH4zgqC-32" value="spinner" style="rounded=1;whiteSpace=wrap;html=1;glass=0;" parent="1" vertex="1">
          <mxGeometry x="40" y="253" width="100" height="40" as="geometry" />
        </mxCell>
        <mxCell id="mcnoIIO7HVUvnrH4zgqC-34" value="" style="edgeStyle=orthogonalEdgeStyle;rounded=0;orthogonalLoop=1;jettySize=auto;html=1;exitX=0.5;exitY=1;exitDx=0;exitDy=0;dashed=1;endArrow=none;endFill=0;" parent="1" source="mcnoIIO7HVUvnrH4zgqC-12" target="mcnoIIO7HVUvnrH4zgqC-33" edge="1">
          <mxGeometry relative="1" as="geometry">
            <mxPoint x="410" y="443" as="targetPoint" />
            <mxPoint x="410" y="113" as="sourcePoint" />
          </mxGeometry>
        </mxCell>
        <mxCell id="mcnoIIO7HVUvnrH4zgqC-37" style="edgeStyle=orthogonalEdgeStyle;rounded=0;orthogonalLoop=1;jettySize=auto;html=1;entryX=1;entryY=0.5;entryDx=0;entryDy=0;dashed=1;dashPattern=1 1;" parent="1" edge="1">
          <mxGeometry relative="1" as="geometry">
            <mxPoint x="360" y="253" as="sourcePoint" />
            <mxPoint x="140" y="253" as="targetPoint" />
          </mxGeometry>
        </mxCell>
        <mxCell id="mcnoIIO7HVUvnrH4zgqC-39" value="user started photo session" style="edgeLabel;html=1;align=center;verticalAlign=middle;resizable=0;points=[];" parent="mcnoIIO7HVUvnrH4zgqC-37" vertex="1" connectable="0">
          <mxGeometry x="0.0775" relative="1" as="geometry">
            <mxPoint x="19" as="offset" />
          </mxGeometry>
        </mxCell>
        <mxCell id="mcnoIIO7HVUvnrH4zgqC-33" value="app loaded" style="rounded=1;whiteSpace=wrap;html=1;glass=0;" parent="1" vertex="1">
          <mxGeometry x="360" y="253" width="100" height="40" as="geometry" />
        </mxCell>
        <mxCell id="mcnoIIO7HVUvnrH4zgqC-35" value="" style="endArrow=classic;dashed=1;html=1;rounded=0;endFill=1;dashPattern=1 1;" parent="1" edge="1">
          <mxGeometry width="50" height="50" relative="1" as="geometry">
            <mxPoint x="140" y="153" as="sourcePoint" />
            <mxPoint x="410" y="153" as="targetPoint" />
          </mxGeometry>
        </mxCell>
        <mxCell id="mcnoIIO7HVUvnrH4zgqC-36" value="give me photo link" style="edgeLabel;html=1;align=center;verticalAlign=middle;resizable=0;points=[];" parent="mcnoIIO7HVUvnrH4zgqC-35" vertex="1" connectable="0">
          <mxGeometry x="-0.1158" y="-1" relative="1" as="geometry">
            <mxPoint as="offset" />
          </mxGeometry>
        </mxCell>
        <mxCell id="mcnoIIO7HVUvnrH4zgqC-42" style="edgeStyle=orthogonalEdgeStyle;rounded=0;orthogonalLoop=1;jettySize=auto;html=1;exitX=0.5;exitY=1;exitDx=0;exitDy=0;dashed=1;endArrow=none;endFill=0;" parent="1" source="mcnoIIO7HVUvnrH4zgqC-40" edge="1">
          <mxGeometry relative="1" as="geometry">
            <mxPoint x="650.047619047619" y="473" as="targetPoint" />
          </mxGeometry>
        </mxCell>
        <mxCell id="mcnoIIO7HVUvnrH4zgqC-40" value="OCR" style="rounded=0;whiteSpace=wrap;html=1;" parent="1" vertex="1">
          <mxGeometry x="600" y="73" width="100" height="40" as="geometry" />
        </mxCell>
        <mxCell id="mcnoIIO7HVUvnrH4zgqC-44" value="" style="endArrow=classic;dashed=1;html=1;rounded=0;dashPattern=1 1;endFill=1;" parent="1" edge="1">
          <mxGeometry width="50" height="50" relative="1" as="geometry">
            <mxPoint x="460" y="333" as="sourcePoint" />
            <mxPoint x="650" y="333.24" as="targetPoint" />
          </mxGeometry>
        </mxCell>
        <mxCell id="mcnoIIO7HVUvnrH4zgqC-45" value="is photo ok?" style="edgeLabel;html=1;align=center;verticalAlign=middle;resizable=0;points=[];" parent="mcnoIIO7HVUvnrH4zgqC-44" vertex="1" connectable="0">
          <mxGeometry x="0.008" relative="1" as="geometry">
            <mxPoint as="offset" />
          </mxGeometry>
        </mxCell>
        <mxCell id="mcnoIIO7HVUvnrH4zgqC-47" value="" style="edgeStyle=orthogonalEdgeStyle;rounded=0;orthogonalLoop=1;jettySize=auto;html=1;exitX=0.5;exitY=1;exitDx=0;exitDy=0;dashed=1;endArrow=none;endFill=0;" parent="1" source="mcnoIIO7HVUvnrH4zgqC-33" target="mcnoIIO7HVUvnrH4zgqC-46" edge="1">
          <mxGeometry relative="1" as="geometry">
            <mxPoint x="410" y="473" as="targetPoint" />
            <mxPoint x="410" y="293" as="sourcePoint" />
          </mxGeometry>
        </mxCell>
        <mxCell id="mcnoIIO7HVUvnrH4zgqC-46" value="finish" style="rounded=1;whiteSpace=wrap;html=1;glass=0;" parent="1" vertex="1">
          <mxGeometry x="360" y="383" width="100" height="40" as="geometry" />
        </mxCell>
        <mxCell id="mcnoIIO7HVUvnrH4zgqC-49" value="" style="endArrow=none;dashed=1;html=1;rounded=0;dashPattern=1 1;endFill=0;startArrow=classic;startFill=1;" parent="1" edge="1">
          <mxGeometry width="50" height="50" relative="1" as="geometry">
            <mxPoint x="460" y="402.76" as="sourcePoint" />
            <mxPoint x="650" y="403" as="targetPoint" />
          </mxGeometry>
        </mxCell>
        <mxCell id="mcnoIIO7HVUvnrH4zgqC-50" value="OK" style="edgeLabel;html=1;align=center;verticalAlign=middle;resizable=0;points=[];" parent="mcnoIIO7HVUvnrH4zgqC-49" vertex="1" connectable="0">
          <mxGeometry x="0.008" relative="1" as="geometry">
            <mxPoint as="offset" />
          </mxGeometry>
        </mxCell>
        <mxCell id="mcnoIIO7HVUvnrH4zgqC-41" value="taking photo" style="rounded=1;whiteSpace=wrap;html=1;glass=0;" parent="1" vertex="1">
          <mxGeometry x="360" y="323" width="100" height="40" as="geometry" />
        </mxCell>
        <mxCell id="mcnoIIO7HVUvnrH4zgqC-51" value="" style="endArrow=none;dashed=1;html=1;rounded=0;dashPattern=1 1;endFill=0;startArrow=classic;startFill=1;" parent="1" edge="1">
          <mxGeometry width="50" height="50" relative="1" as="geometry">
            <mxPoint x="460" y="353" as="sourcePoint" />
            <mxPoint x="650" y="353.24" as="targetPoint" />
          </mxGeometry>
        </mxCell>
        <mxCell id="mcnoIIO7HVUvnrH4zgqC-52" value="NOK - retake photo" style="edgeLabel;html=1;align=center;verticalAlign=middle;resizable=0;points=[];" parent="mcnoIIO7HVUvnrH4zgqC-51" vertex="1" connectable="0">
          <mxGeometry x="0.008" relative="1" as="geometry">
            <mxPoint as="offset" />
          </mxGeometry>
        </mxCell>
        <mxCell id="mcnoIIO7HVUvnrH4zgqC-54" value="finish" style="rounded=1;whiteSpace=wrap;html=1;glass=0;" parent="1" vertex="1">
          <mxGeometry x="40" y="383" width="100" height="40" as="geometry" />
        </mxCell>
        <mxCell id="mcnoIIO7HVUvnrH4zgqC-55" style="edgeStyle=orthogonalEdgeStyle;rounded=0;orthogonalLoop=1;jettySize=auto;html=1;entryX=1;entryY=0.5;entryDx=0;entryDy=0;dashed=1;dashPattern=1 1;" parent="1" edge="1">
          <mxGeometry relative="1" as="geometry">
            <mxPoint x="360" y="402.76" as="sourcePoint" />
            <mxPoint x="140" y="402.76" as="targetPoint" />
          </mxGeometry>
        </mxCell>
        <mxCell id="mcnoIIO7HVUvnrH4zgqC-56" value="OK, and photo" style="edgeLabel;html=1;align=center;verticalAlign=middle;resizable=0;points=[];" parent="mcnoIIO7HVUvnrH4zgqC-55" vertex="1" connectable="0">
          <mxGeometry x="0.0775" relative="1" as="geometry">
            <mxPoint x="19" as="offset" />
          </mxGeometry>
        </mxCell>
        <mxCell id="mcnoIIO7HVUvnrH4zgqC-57" style="edgeStyle=orthogonalEdgeStyle;rounded=0;orthogonalLoop=1;jettySize=auto;html=1;entryX=1;entryY=0.5;entryDx=0;entryDy=0;dashed=1;dashPattern=1 1;startArrow=classic;startFill=1;endArrow=none;endFill=0;" parent="1" edge="1">
          <mxGeometry relative="1" as="geometry">
            <mxPoint x="360" y="263" as="sourcePoint" />
            <mxPoint x="140" y="263" as="targetPoint" />
          </mxGeometry>
        </mxCell>
        <mxCell id="mcnoIIO7HVUvnrH4zgqC-58" value="is it done?" style="edgeLabel;html=1;align=center;verticalAlign=middle;resizable=0;points=[];" parent="mcnoIIO7HVUvnrH4zgqC-57" vertex="1" connectable="0">
          <mxGeometry x="0.0775" relative="1" as="geometry">
            <mxPoint x="19" as="offset" />
          </mxGeometry>
        </mxCell>
        <mxCell id="mcnoIIO7HVUvnrH4zgqC-59" style="edgeStyle=orthogonalEdgeStyle;rounded=0;orthogonalLoop=1;jettySize=auto;html=1;entryX=1;entryY=0.5;entryDx=0;entryDy=0;dashed=1;dashPattern=1 1;" parent="1" edge="1">
          <mxGeometry relative="1" as="geometry">
            <mxPoint x="360" y="274" as="sourcePoint" />
            <mxPoint x="140" y="274" as="targetPoint" />
          </mxGeometry>
        </mxCell>
        <mxCell id="mcnoIIO7HVUvnrH4zgqC-60" value="NOK" style="edgeLabel;html=1;align=center;verticalAlign=middle;resizable=0;points=[];" parent="mcnoIIO7HVUvnrH4zgqC-59" vertex="1" connectable="0">
          <mxGeometry x="0.0775" relative="1" as="geometry">
            <mxPoint x="19" as="offset" />
          </mxGeometry>
        </mxCell>
        <mxCell id="7ss_uYkH3RlmQ_hNlB4u-1" style="edgeStyle=orthogonalEdgeStyle;rounded=0;orthogonalLoop=1;jettySize=auto;html=1;exitX=0.5;exitY=1;exitDx=0;exitDy=0;dashed=1;endArrow=none;endFill=0;" edge="1" parent="1" source="7ss_uYkH3RlmQ_hNlB4u-6">
          <mxGeometry relative="1" as="geometry">
            <mxPoint x="90" y="863" as="targetPoint" />
          </mxGeometry>
        </mxCell>
        <mxCell id="7ss_uYkH3RlmQ_hNlB4u-2" value="mobile web" style="rounded=0;whiteSpace=wrap;html=1;" vertex="1" parent="1">
          <mxGeometry x="40" y="543" width="100" height="40" as="geometry" />
        </mxCell>
        <mxCell id="7ss_uYkH3RlmQ_hNlB4u-3" value="mobile photo web" style="rounded=0;whiteSpace=wrap;html=1;" vertex="1" parent="1">
          <mxGeometry x="360" y="543" width="100" height="40" as="geometry" />
        </mxCell>
        <mxCell id="7ss_uYkH3RlmQ_hNlB4u-4" style="edgeStyle=orthogonalEdgeStyle;rounded=0;orthogonalLoop=1;jettySize=auto;html=1;exitX=0.5;exitY=1;exitDx=0;exitDy=0;dashed=1;endArrow=none;endFill=0;" edge="1" parent="1" source="7ss_uYkH3RlmQ_hNlB4u-22">
          <mxGeometry relative="1" as="geometry">
            <mxPoint x="410" y="863" as="targetPoint" />
          </mxGeometry>
        </mxCell>
        <mxCell id="7ss_uYkH3RlmQ_hNlB4u-5" value="" style="edgeStyle=orthogonalEdgeStyle;rounded=0;orthogonalLoop=1;jettySize=auto;html=1;exitX=0.5;exitY=1;exitDx=0;exitDy=0;dashed=1;endArrow=none;endFill=0;" edge="1" parent="1" source="7ss_uYkH3RlmQ_hNlB4u-2" target="7ss_uYkH3RlmQ_hNlB4u-6">
          <mxGeometry relative="1" as="geometry">
            <mxPoint x="90" y="913" as="targetPoint" />
            <mxPoint x="90" y="583" as="sourcePoint" />
          </mxGeometry>
        </mxCell>
        <mxCell id="7ss_uYkH3RlmQ_hNlB4u-6" value="click on link" style="rounded=1;whiteSpace=wrap;html=1;" vertex="1" parent="1">
          <mxGeometry x="40" y="603" width="100" height="40" as="geometry" />
        </mxCell>
        <mxCell id="7ss_uYkH3RlmQ_hNlB4u-11" value="" style="edgeStyle=orthogonalEdgeStyle;rounded=0;orthogonalLoop=1;jettySize=auto;html=1;exitX=0.5;exitY=1;exitDx=0;exitDy=0;dashed=1;endArrow=none;endFill=0;" edge="1" parent="1" source="7ss_uYkH3RlmQ_hNlB4u-3" target="7ss_uYkH3RlmQ_hNlB4u-14">
          <mxGeometry relative="1" as="geometry">
            <mxPoint x="410" y="913" as="targetPoint" />
            <mxPoint x="410" y="583" as="sourcePoint" />
          </mxGeometry>
        </mxCell>
        <mxCell id="7ss_uYkH3RlmQ_hNlB4u-14" value="app loaded" style="rounded=1;whiteSpace=wrap;html=1;glass=0;" vertex="1" parent="1">
          <mxGeometry x="360" y="663" width="100" height="40" as="geometry" />
        </mxCell>
        <mxCell id="7ss_uYkH3RlmQ_hNlB4u-15" value="" style="endArrow=classic;dashed=1;html=1;rounded=0;endFill=1;dashPattern=1 1;" edge="1" parent="1">
          <mxGeometry width="50" height="50" relative="1" as="geometry">
            <mxPoint x="140" y="623" as="sourcePoint" />
            <mxPoint x="410" y="623" as="targetPoint" />
          </mxGeometry>
        </mxCell>
        <mxCell id="7ss_uYkH3RlmQ_hNlB4u-16" value="redirect to the photo taking app" style="edgeLabel;html=1;align=center;verticalAlign=middle;resizable=0;points=[];" vertex="1" connectable="0" parent="7ss_uYkH3RlmQ_hNlB4u-15">
          <mxGeometry x="-0.1158" y="-1" relative="1" as="geometry">
            <mxPoint as="offset" />
          </mxGeometry>
        </mxCell>
        <mxCell id="7ss_uYkH3RlmQ_hNlB4u-17" style="edgeStyle=orthogonalEdgeStyle;rounded=0;orthogonalLoop=1;jettySize=auto;html=1;exitX=0.5;exitY=1;exitDx=0;exitDy=0;dashed=1;endArrow=none;endFill=0;" edge="1" parent="1" source="7ss_uYkH3RlmQ_hNlB4u-18">
          <mxGeometry relative="1" as="geometry">
            <mxPoint x="650" y="863" as="targetPoint" />
          </mxGeometry>
        </mxCell>
        <mxCell id="7ss_uYkH3RlmQ_hNlB4u-18" value="OCR" style="rounded=0;whiteSpace=wrap;html=1;" vertex="1" parent="1">
          <mxGeometry x="600" y="543" width="100" height="40" as="geometry" />
        </mxCell>
        <mxCell id="7ss_uYkH3RlmQ_hNlB4u-19" value="" style="endArrow=classic;dashed=1;html=1;rounded=0;dashPattern=1 1;endFill=1;" edge="1" parent="1">
          <mxGeometry width="50" height="50" relative="1" as="geometry">
            <mxPoint x="460" y="746" as="sourcePoint" />
            <mxPoint x="650" y="746.24" as="targetPoint" />
          </mxGeometry>
        </mxCell>
        <mxCell id="7ss_uYkH3RlmQ_hNlB4u-20" value="is photo ok?" style="edgeLabel;html=1;align=center;verticalAlign=middle;resizable=0;points=[];" vertex="1" connectable="0" parent="7ss_uYkH3RlmQ_hNlB4u-19">
          <mxGeometry x="0.008" relative="1" as="geometry">
            <mxPoint as="offset" />
          </mxGeometry>
        </mxCell>
        <mxCell id="7ss_uYkH3RlmQ_hNlB4u-21" value="" style="edgeStyle=orthogonalEdgeStyle;rounded=0;orthogonalLoop=1;jettySize=auto;html=1;exitX=0.5;exitY=1;exitDx=0;exitDy=0;dashed=1;endArrow=none;endFill=0;" edge="1" parent="1" source="7ss_uYkH3RlmQ_hNlB4u-14" target="7ss_uYkH3RlmQ_hNlB4u-22">
          <mxGeometry relative="1" as="geometry">
            <mxPoint x="410" y="943" as="targetPoint" />
            <mxPoint x="410" y="763" as="sourcePoint" />
          </mxGeometry>
        </mxCell>
        <mxCell id="7ss_uYkH3RlmQ_hNlB4u-22" value="finish" style="rounded=1;whiteSpace=wrap;html=1;glass=0;" vertex="1" parent="1">
          <mxGeometry x="360" y="796" width="100" height="40" as="geometry" />
        </mxCell>
        <mxCell id="7ss_uYkH3RlmQ_hNlB4u-23" value="" style="endArrow=none;dashed=1;html=1;rounded=0;dashPattern=1 1;endFill=0;startArrow=classic;startFill=1;" edge="1" parent="1">
          <mxGeometry width="50" height="50" relative="1" as="geometry">
            <mxPoint x="460" y="815.76" as="sourcePoint" />
            <mxPoint x="650" y="816" as="targetPoint" />
          </mxGeometry>
        </mxCell>
        <mxCell id="7ss_uYkH3RlmQ_hNlB4u-24" value="OK" style="edgeLabel;html=1;align=center;verticalAlign=middle;resizable=0;points=[];" vertex="1" connectable="0" parent="7ss_uYkH3RlmQ_hNlB4u-23">
          <mxGeometry x="0.008" relative="1" as="geometry">
            <mxPoint as="offset" />
          </mxGeometry>
        </mxCell>
        <mxCell id="7ss_uYkH3RlmQ_hNlB4u-25" value="taking photo" style="rounded=1;whiteSpace=wrap;html=1;glass=0;" vertex="1" parent="1">
          <mxGeometry x="360" y="736" width="100" height="40" as="geometry" />
        </mxCell>
        <mxCell id="7ss_uYkH3RlmQ_hNlB4u-26" value="" style="endArrow=none;dashed=1;html=1;rounded=0;dashPattern=1 1;endFill=0;startArrow=classic;startFill=1;" edge="1" parent="1">
          <mxGeometry width="50" height="50" relative="1" as="geometry">
            <mxPoint x="460" y="766" as="sourcePoint" />
            <mxPoint x="650" y="766.24" as="targetPoint" />
          </mxGeometry>
        </mxCell>
        <mxCell id="7ss_uYkH3RlmQ_hNlB4u-27" value="NOK - retake photo" style="edgeLabel;html=1;align=center;verticalAlign=middle;resizable=0;points=[];" vertex="1" connectable="0" parent="7ss_uYkH3RlmQ_hNlB4u-26">
          <mxGeometry x="0.008" relative="1" as="geometry">
            <mxPoint as="offset" />
          </mxGeometry>
        </mxCell>
        <mxCell id="7ss_uYkH3RlmQ_hNlB4u-28" value="finish" style="rounded=1;whiteSpace=wrap;html=1;glass=0;" vertex="1" parent="1">
          <mxGeometry x="40" y="796" width="100" height="40" as="geometry" />
        </mxCell>
        <mxCell id="7ss_uYkH3RlmQ_hNlB4u-29" style="edgeStyle=orthogonalEdgeStyle;rounded=0;orthogonalLoop=1;jettySize=auto;html=1;entryX=1;entryY=0.5;entryDx=0;entryDy=0;dashed=1;dashPattern=1 1;" edge="1" parent="1">
          <mxGeometry relative="1" as="geometry">
            <mxPoint x="360" y="815.76" as="sourcePoint" />
            <mxPoint x="140" y="815.76" as="targetPoint" />
          </mxGeometry>
        </mxCell>
        <mxCell id="7ss_uYkH3RlmQ_hNlB4u-30" value="redirect to the mobil web" style="edgeLabel;html=1;align=center;verticalAlign=middle;resizable=0;points=[];" vertex="1" connectable="0" parent="7ss_uYkH3RlmQ_hNlB4u-29">
          <mxGeometry x="0.0775" relative="1" as="geometry">
            <mxPoint x="19" as="offset" />
          </mxGeometry>
        </mxCell>
        <mxCell id="7ss_uYkH3RlmQ_hNlB4u-35" value="Desktop -&amp;gt; mobile" style="text;strokeColor=none;fillColor=none;html=1;fontSize=24;fontStyle=1;verticalAlign=middle;align=center;" vertex="1" parent="1">
          <mxGeometry x="40" y="13" width="230" height="40" as="geometry" />
        </mxCell>
        <mxCell id="7ss_uYkH3RlmQ_hNlB4u-36" value="mobile -&amp;gt; mobile" style="text;strokeColor=none;fillColor=none;html=1;fontSize=24;fontStyle=1;verticalAlign=middle;align=center;" vertex="1" parent="1">
          <mxGeometry x="30" y="487" width="230" height="40" as="geometry" />
        </mxCell>
      </root>
    </mxGraphModel>
  </diagram>
</mxfile>
